<mxfile host="65bd71144e">
    <diagram id="bTA6vSTbjnf8XzbtjrRW" name="第 1 页">
        <mxGraphModel dx="1844" dy="-557" grid="1" gridSize="10" guides="1" tooltips="1" connect="1" arrows="1" fold="1" page="1" pageScale="1" pageWidth="827" pageHeight="1169" math="0" shadow="0">
            <root>
                <mxCell id="0"/>
                <mxCell id="1" parent="0"/>
                <mxCell id="2" value="&lt;div style=&quot;border-color: rgb(0, 0, 0); color: rgb(255, 0, 0); font-family: Helvetica; font-style: normal; font-variant-ligatures: normal; font-variant-caps: normal; font-weight: 400; letter-spacing: normal; orphans: 2; text-align: left; text-indent: 0px; text-transform: none; widows: 2; word-spacing: 0px; -webkit-text-stroke-width: 0px; text-decoration-thickness: initial; text-decoration-style: initial; text-decoration-color: initial; font-size: 12px;&quot;&gt;&lt;/div&gt;&lt;font color=&quot;#ff0000&quot;&gt;&lt;span style=&quot;font-size: 24px;&quot;&gt;&amp;nbsp; &amp;nbsp; 1、当Vue更新DOM时，它是异步执行的。当数据发生变化时，Vue会进行异步的DOM更新，在同一时间内的多次更新，Vue底层回根据id进行过滤，最终只会有一次添加进nextTick回调队列。&lt;br&gt;&lt;/span&gt;&amp;nbsp; &amp;nbsp; &lt;font style=&quot;font-size: 24px;&quot;&gt;&amp;nbsp;2、nextTick方法的内部，&lt;/font&gt;&lt;/font&gt;&lt;span style=&quot;color: rgb(255, 0, 0); font-size: 24px;&quot;&gt;它根据环境的不同选择最适合的微任务API&amp;nbsp;&lt;/span&gt;&lt;font color=&quot;#ff0000&quot;&gt;&lt;font style=&quot;font-size: 24px;&quot;&gt;执行回调，例如Promise、MutationObserver或setImmediate。&lt;/font&gt;&lt;br&gt;&lt;br&gt;&lt;/font&gt;" style="text;whiteSpace=wrap;html=1;labelBackgroundColor=#FFFF00;" parent="1" vertex="1">
                    <mxGeometry x="-650" y="1340" width="510" height="250" as="geometry"/>
                </mxCell>
            </root>
        </mxGraphModel>
    </diagram>
</mxfile>